<?xml version="1.0" encoding="UTF-8"?>
<svg version="1.1" xmlns="http://www.w3.org/2000/svg" width="512" height="512">
<path d="M0 0 C0.99868909 -0.00297112 1.99737819 -0.00594224 3.02633059 -0.0090034 C6.35908455 -0.01764635 9.69180239 -0.01919493 13.02456665 -0.02069092 C15.42015662 -0.02532233 17.81574585 -0.03034742 20.21133423 -0.03573608 C26.71186048 -0.04883371 33.21237985 -0.05533771 39.71291685 -0.05974674 C43.78023756 -0.06251761 47.84755591 -0.06675656 51.91487503 -0.07125092 C63.19913521 -0.08343966 74.48339352 -0.09373856 85.76766014 -0.09712601 C86.48888342 -0.09734557 87.2101067 -0.09756514 87.95318524 -0.09779136 C88.67603937 -0.09800964 89.39889351 -0.09822791 90.14365232 -0.09845281 C91.60818887 -0.09889626 93.07272542 -0.09934282 94.53726196 -0.09979248 C95.2637076 -0.10001391 95.99015323 -0.10023534 96.73861237 -0.10046348 C108.48858398 -0.10440477 120.23849332 -0.12184006 131.98844092 -0.145152 C144.08217627 -0.16895013 156.17588049 -0.18133175 168.26963961 -0.18249393 C175.04751456 -0.18340615 181.82530843 -0.18904286 188.60316086 -0.20731354 C194.98736375 -0.22388814 201.37141365 -0.2259044 207.75563049 -0.21717453 C210.08628883 -0.21640908 212.41695571 -0.22068117 214.74759293 -0.23063278 C258.07962913 -0.40465983 296.27158717 14.14096113 327.37026978 44.66778564 C335.82133285 53.25263113 342.72223089 62.77794547 348.81997681 73.14044189 C349.16657349 73.72519287 349.51317017 74.30994385 349.87026978 74.91241455 C362.01010239 95.68527045 368.98307225 119.22610484 368.9604187 143.32046509 C368.96487538 144.81849873 368.96487538 144.81849873 368.9694221 146.34679568 C368.97806505 149.67954963 368.97961363 153.01226748 368.98110962 156.34503174 C368.98574103 158.7406217 368.99076612 161.13621093 368.99615479 163.53179932 C369.00925242 170.03232557 369.01575642 176.53284494 369.02016544 183.03338194 C369.02293631 187.10070264 369.02717527 191.168021 369.03166962 195.23534012 C369.04385836 206.5196003 369.05415726 217.80385861 369.05754471 229.08812523 C369.05776427 229.80934851 369.05798384 230.53057179 369.05821006 231.27365033 C369.05842834 231.99650446 369.05864662 232.7193586 369.05887151 233.46411741 C369.05931496 234.92865396 369.05976152 236.3931905 369.06021118 237.85772705 C369.06043261 238.58417268 369.06065404 239.31061832 369.06088218 240.05907746 C369.06482347 251.80904907 369.08225876 263.55895841 369.1055707 275.308906 C369.12936883 287.40264135 369.14175045 299.49634558 369.14291263 311.5901047 C369.14382485 318.36797965 369.14946156 325.14577352 369.16773224 331.92362595 C369.18430684 338.30782883 369.1863231 344.69187874 369.17759323 351.07609558 C369.17682778 353.40675392 369.18109987 355.7374208 369.19105148 358.06805801 C369.36507853 401.40009422 354.81945758 439.59205226 324.29263306 470.69073486 C315.70778757 479.14179794 306.18247323 486.04269597 295.81997681 492.14044189 C295.23522583 492.48703857 294.65047485 492.83363525 294.04800415 493.19073486 C273.27514825 505.33056748 249.73431386 512.30353734 225.63995361 512.28088379 C224.64126452 512.28385491 223.64257542 512.28682603 222.61362302 512.28988719 C219.28086907 512.29853014 215.94815122 512.30007872 212.61538696 512.30157471 C210.219797 512.30620611 207.82420777 512.31123121 205.42861938 512.31661987 C198.92809313 512.3297175 192.42757376 512.3362215 185.92703676 512.34063053 C181.85971606 512.3434014 177.7923977 512.34764035 173.72507858 512.3521347 C162.4408184 512.36432345 151.15656009 512.37462235 139.87229347 512.3780098 C138.79045855 512.37833915 138.79045855 512.37833915 137.68676838 512.37867515 C136.96391424 512.37889343 136.2410601 512.3791117 135.49630129 512.3793366 C134.03176474 512.37978005 132.5672282 512.38022661 131.10269165 512.38067627 C130.37624602 512.3808977 129.64980038 512.38111913 128.90134124 512.38134727 C117.15136963 512.38528855 105.40146029 512.40272385 93.6515127 512.42603579 C81.55777735 512.44983392 69.46407312 512.46221554 57.370314 512.46337771 C50.59243905 512.46428994 43.81464518 512.46992664 37.03679276 512.48819733 C30.65258987 512.50477193 24.26853996 512.50678819 17.88432312 512.49805832 C15.55366478 512.49729287 13.2229979 512.50156496 10.89236069 512.51151657 C-32.43967552 512.68554362 -70.63163355 498.13992266 -101.73031616 467.61309814 C-110.18137924 459.02825266 -117.08227727 449.50293832 -123.18002319 439.14044189 C-123.52661987 438.55569092 -123.87321655 437.97093994 -124.23031616 437.36846924 C-139.15366328 411.83265263 -143.96888288 384.22270078 -143.82699585 354.93341064 C-143.83379502 352.5269607 -143.84271086 350.12051597 -143.85354614 347.71408081 C-143.87607264 341.2594098 -143.86761464 334.80514453 -143.85165071 328.35046768 C-143.84267249 324.30057544 -143.84447118 320.25073325 -143.84910202 316.20083618 C-143.84986819 315.52315191 -143.85063435 314.84546765 -143.85142373 314.14724749 C-143.85302277 312.7694531 -143.85464384 311.39165874 -143.85628669 310.0138644 C-143.87045789 297.17115175 -143.8542884 284.32861914 -143.82728486 271.48593605 C-143.80495393 260.5272569 -143.80883651 249.56884283 -143.83187866 238.61016846 C-143.85879081 225.80542442 -143.86908541 213.00083715 -143.85381734 200.19606876 C-143.85222502 198.82406174 -143.85065316 197.45205468 -143.84910202 196.08004761 C-143.84833064 195.40544076 -143.84755927 194.73083391 -143.84676451 194.03578442 C-143.84249339 189.33985864 -143.8498857 184.64406472 -143.86149979 179.94815063 C-143.87611257 173.59803788 -143.86562045 167.2484178 -143.8370285 160.89835739 C-143.83050645 158.58998806 -143.83215941 156.2815761 -143.84334183 153.97322464 C-144.02984188 111.50758545 -129.37532516 73.193066 -99.75082397 42.66778564 C-73.70742027 16.77431011 -36.88675524 -0.03468097 0 0 Z " fill="#1565C0" transform="translate(143.18002319335938,-0.14044189453125)"/>
<path d="M0 0 C0.71703411 -0.00438225 1.43406822 -0.00876451 2.17283064 -0.01327956 C4.57612503 -0.02663638 6.97938278 -0.0328395 9.38270569 -0.03897095 C11.10602482 -0.04687465 12.82934232 -0.05514377 14.55265808 -0.06375122 C20.21482264 -0.08995 25.87699449 -0.10528116 31.53919983 -0.11953735 C33.49159309 -0.12489875 35.4439863 -0.13027627 37.39637947 -0.13566971 C45.52278853 -0.15729923 53.64919563 -0.17603266 61.77562618 -0.1872921 C73.40191783 -0.20350876 85.02787409 -0.2366302 96.65403932 -0.29369295 C104.83854414 -0.33248557 113.02295963 -0.35193606 121.20755392 -0.35721266 C126.09017126 -0.36085462 130.97243071 -0.37275172 135.85494804 -0.4053154 C140.45565443 -0.4355588 145.05578946 -0.44165033 149.65657425 -0.42993164 C151.33626125 -0.42971223 153.01597602 -0.43790632 154.69556999 -0.45558548 C167.31632018 -0.58109219 178.96131686 1.01495246 189.10951233 9.3609314 C196.13588927 16.44907868 201.2301215 25.11163858 201.22674561 35.24411011 C201.21126175 35.94652832 201.19577789 36.64894653 201.17982483 37.37265015 C201.17557999 38.11599609 201.17133514 38.85934204 201.16696167 39.62521362 C201.15034689 41.96849872 201.11273062 44.31088092 201.07435608 46.65390015 C201.05928686 48.25545011 201.0456024 49.85701373 201.03334045 51.45858765 C201.00050034 55.35736598 200.94884171 59.25548071 200.88685608 63.15390015 C213.66987721 55.53808561 226.36387352 47.79092069 239.00453186 39.9414978 C252.36309818 31.65660685 265.74618795 23.40944015 279.19935608 15.27890015 C280.01090149 14.78510864 280.8224469 14.29131714 281.65858459 13.78256226 C292.17616648 7.45623957 302.04602863 6.58196305 314.16029358 8.7359314 C324.41689187 11.95397585 331.5171938 19.55824214 336.73060608 28.6968689 C339.19019612 33.92349773 340.13721539 38.34251637 340.14082336 44.12359619 C340.14394335 44.80094791 340.14706333 45.47829962 340.15027785 46.17617714 C340.15821888 48.43300166 340.15194953 50.68955437 340.14564514 52.94638062 C340.14835679 54.56973426 340.1519187 56.19308668 340.15626526 57.81643677 C340.16537231 62.21733548 340.16185156 66.61814026 340.15550709 71.01904058 C340.15043666 75.63041273 340.1551416 80.24177694 340.15827942 84.85314941 C340.16191675 92.59875936 340.15712683 100.34433115 340.14759827 108.0899353 C340.13672185 117.03424672 340.14023432 125.9784669 340.15125108 134.9227761 C340.16033976 142.61043987 340.16160127 150.29807623 340.15637374 157.98574364 C340.15326174 162.57348698 340.15282334 167.16118751 340.15944672 171.74892807 C340.16524227 176.06471505 340.16118294 180.38038497 340.1496582 184.69615936 C340.14702309 186.27633343 340.147757 187.85651741 340.15218353 189.43668747 C340.18705909 203.15594608 338.88508687 213.99418544 329.19935608 224.40390015 C320.76759631 232.41967177 311.36298542 234.62480199 300.06117249 234.66195679 C291.74139398 234.43756442 285.86170631 231.54834681 278.88685608 227.15390015 C277.12409421 226.07274864 275.36105015 224.99205715 273.59779358 223.91171265 C269.50269352 221.38327265 265.42801451 218.82481691 261.36341858 216.24765015 C254.94708611 212.18093323 248.48626959 208.18982457 242.01185608 204.21640015 C239.85820602 202.89349037 237.70456022 201.57057365 235.55091858 200.24765015 C234.46971741 199.58378296 233.38851624 198.91991577 232.27455139 198.2359314 C228.69284419 196.03466309 225.11373328 193.82922391 221.53529358 191.62265015 C219.7350068 190.51297777 217.93468369 189.40336437 216.13435364 188.29376221 C214.41759532 187.23535141 212.70129374 186.17619988 210.98500061 185.11703491 C209.95230042 184.480802 208.91960022 183.84456909 207.85560608 183.1890564 C206.48565491 182.34419678 206.48565491 182.34419678 205.08802795 181.48226929 C202.95103144 180.15296883 202.95103144 180.15296883 200.88685608 179.15390015 C200.90780334 180.06043335 200.92875061 180.96696655 200.95033264 181.90097046 C201.01924332 185.32295259 201.0690067 188.74417851 201.10658264 192.16659546 C201.12647584 193.63676724 201.1536008 195.10686229 201.18861389 196.57675171 C201.47610813 208.97282671 200.34494053 220.28938726 191.99623108 230.1187439 C180.24746832 241.45412426 167.1734716 242.60436684 151.69398499 242.55795288 C149.96815552 242.56366373 148.24232982 242.57063075 146.51651001 242.57875061 C141.85316707 242.59661897 137.19001296 242.59552548 132.52664614 242.58980823 C128.62281116 242.58670694 124.71901196 242.59281931 120.81518209 242.59884697 C111.59978504 242.61287008 102.38448073 242.61134961 93.16908264 242.59994507 C83.68619246 242.58846827 74.20358524 242.60253724 64.72073233 242.62934154 C56.55648398 242.65154814 48.39232412 242.6581247 40.22804773 242.65226513 C35.36184368 242.64890594 30.49582092 242.65124123 25.62964249 242.66851616 C21.05104068 242.68406232 16.47285574 242.67994529 11.89426994 242.66121101 C10.22224312 242.65754615 8.55018489 242.66057164 6.87818718 242.6710968 C-7.67131759 242.75563216 -19.21119821 240.63542542 -30.01548767 230.34140015 C-34.63851049 225.49357917 -37.0256211 220.47258482 -39.11314392 214.15390015 C-39.44314392 213.16390015 -39.77314392 212.17390015 -40.11314392 211.15390015 C-40.21635383 208.77175837 -40.25695117 206.38678138 -40.26704407 204.00242615 C-40.27361745 202.90259695 -40.27361745 202.90259695 -40.28032362 201.78054899 C-40.29370855 199.3165365 -40.29988991 196.85255977 -40.30601501 194.38851929 C-40.31391654 192.6243168 -40.32218552 190.86011592 -40.33079529 189.09591675 C-40.35702046 183.29364567 -40.37232837 177.49136738 -40.38658142 171.6890564 C-40.39194183 169.68990003 -40.39731934 167.69074372 -40.40271378 165.69158745 C-40.42434763 157.37134584 -40.44308152 149.05110617 -40.45433617 140.73084354 C-40.47055499 128.81969659 -40.50367679 116.90887692 -40.56073701 104.99785334 C-40.59950991 96.61720757 -40.61897784 88.23664904 -40.62425673 79.85591596 C-40.62790153 74.85427085 -40.63982907 69.85297477 -40.67235947 64.85142708 C-40.70256771 60.13911537 -40.70870668 55.42736149 -40.69697571 50.71497345 C-40.696756 48.9929413 -40.70497496 47.27088232 -40.72262955 45.54894066 C-40.84728215 32.68189204 -39.30219833 21.57209166 -29.99205017 11.8999939 C-24.15832249 6.4786295 -18.85395168 3.17640443 -11.11314392 1.15390015 C-10.55699119 0.98087561 -10.00083845 0.80785107 -9.4278326 0.62958336 C-6.26140889 -0.02113681 -3.23296767 0.01402292 0 0 Z " fill="#E2F1FC" transform="translate(106.11314392089844,134.84609985351563)"/>
<path d="M0 0 C3.08926761 1.4778277 5.22092209 2.97232869 7.64770508 5.40478516 C8.34555618 6.09955963 9.04340729 6.79433411 9.7624054 7.51016235 C10.87968269 8.63821793 10.87968269 8.63821793 12.01953125 9.7890625 C13.18472542 10.954944 13.18472542 10.954944 14.37345886 12.14437866 C16.01737633 13.79131673 17.65886313 15.44068405 19.2980957 17.09228516 C21.78747093 19.59978866 24.28462575 22.0993256 26.78320312 24.59765625 C28.38328261 26.20265647 29.98290648 27.80811106 31.58203125 29.4140625 C32.69019951 30.52389999 32.69019951 30.52389999 33.820755 31.65615845 C34.52806259 32.36984589 35.23537018 33.08353333 35.96411133 33.81884766 C36.88200188 34.7424559 36.88200188 34.7424559 37.81843567 35.6847229 C39.03555597 36.97644312 40.23545698 38.28738862 41.36024666 39.66025829 C44.91306928 43.94800856 48.75409111 47.52839466 53.06280518 51.0405426 C63.78608864 59.99488184 73.33121102 68.43386153 74.69459152 82.98484707 C75.07578629 89.67738733 74.92309241 96.3371735 74.63364315 103.02951503 C74.4854807 107.08127957 74.48244871 111.1335813 74.46124268 115.18763733 C74.40654187 121.98083689 74.26250728 128.76683025 74.05078125 135.55688477 C73.75405583 145.07451632 73.61702191 154.58946935 73.51376867 164.11090457 C72.86324502 220.8320358 68.53200538 271.13079444 26 313 C17.75705351 320.80286591 8.76822292 327.25195059 -1 333 C-1.58475098 333.34659668 -2.16950195 333.69319336 -2.77197266 334.05029297 C-25.43354368 347.29390667 -49.74966784 352.80459643 -75.78417969 353.55786133 C-76.51252014 353.58012346 -77.2408606 353.6023856 -77.99127197 353.62532234 C-92.40022673 354.06485558 -106.81188709 354.32895187 -121.22593307 354.5328722 C-130.38005196 354.66563545 -139.52699401 354.85056317 -148.67675781 355.16723633 C-156.6918808 355.44455006 -164.70192054 355.61845356 -172.72174382 355.67514819 C-176.95184456 355.70835381 -181.16790527 355.78735045 -185.39351654 355.99100685 C-200.24970879 356.67852034 -213.54737631 357.0536453 -225.25061035 346.78890991 C-230.89479148 341.56866089 -236.05863281 335.87056538 -240.87142229 329.87767971 C-243.77695032 326.26716829 -246.85300413 323.24631592 -250.43553311 320.30126047 C-252.78141586 318.3500498 -254.86797899 316.18189598 -257 314 C-258.46447775 312.53270623 -259.93056239 311.06701565 -261.3976593 309.6023407 C-293.2651062 277.7348938 -325.1325531 245.8674469 -357 214 C-356.505 213.01 -356.505 213.01 -356 212 C-355.32453125 212.27714844 -354.6490625 212.55429687 -353.953125 212.83984375 C-353.06109375 213.20207031 -352.1690625 213.56429687 -351.25 213.9375 C-350.36828125 214.29714844 -349.4865625 214.65679687 -348.578125 215.02734375 C-343.87054384 216.80338573 -339.94267806 217.13034757 -334.88012695 217.14717102 C-334.16238728 217.15084771 -333.4446476 217.1545244 -332.70515823 217.1583125 C-330.2995253 217.16932741 -327.8939356 217.1731895 -325.48828125 217.17700195 C-323.76333988 217.18326844 -322.03839986 217.18991541 -320.3134613 217.19691467 C-314.64648374 217.21794185 -308.97950595 217.22831833 -303.3125 217.23828125 C-301.35884589 217.24232982 -299.40519191 217.24644677 -297.45153809 217.25063133 C-288.26889875 217.26968295 -279.08626743 217.28391198 -269.90361214 217.2922433 C-259.32030284 217.30200488 -248.73720329 217.32829632 -238.15396786 217.36874419 C-229.96438137 217.39896414 -221.7748548 217.41371789 -213.58521366 217.41702431 C-208.69877372 217.4193688 -203.81255786 217.42825026 -198.92617798 217.45348549 C-194.32306812 217.47687314 -189.72032816 217.48095672 -185.11717415 217.47072411 C-183.43546374 217.47023117 -181.75373447 217.47647963 -180.07208061 217.49028015 C-166.89597183 217.59228502 -154.24762187 216.16581918 -144 207 C-134.28883464 196.05837509 -133.52840127 184.36353867 -133.3125 170.375 C-133.27925644 168.87887768 -133.24476053 167.38278265 -133.20898438 165.88671875 C-133.12489603 162.25801284 -133.05771315 158.62923255 -133 155 C-129.8171136 156.21254461 -126.89735618 157.53655958 -123.98046875 159.29296875 C-123.21822998 159.7504248 -122.45599121 160.20788086 -121.6706543 160.67919922 C-120.85121338 161.17693848 -120.03177246 161.67467773 -119.1875 162.1875 C-117.88002808 162.97664795 -117.88002808 162.97664795 -116.54614258 163.78173828 C-108.70097377 168.53525248 -100.92681346 173.40090134 -93.15722656 178.27661133 C-83.34712311 184.42717843 -73.46653337 190.45797343 -63.55908203 196.45019531 C-61.17046067 197.89676738 -58.7858725 199.3497451 -56.40234375 200.8046875 C-55.06003689 201.62002393 -53.71759972 202.4351459 -52.375 203.25 C-51.24835938 203.93578125 -50.12171875 204.6215625 -48.9609375 205.328125 C-39.94981882 210.41619729 -29.79513601 210.20820437 -19.7265625 208.41796875 C-9.09404534 205.08197841 -2.10255002 197.32074012 2.94140625 187.67578125 C4.95951035 182.57466941 5.12868483 177.50190004 5.15390015 172.06394958 C5.1582824 171.3901257 5.16266465 170.71630181 5.1671797 170.02205902 C5.18047328 167.77699141 5.18672516 165.53196295 5.19287109 163.28686523 C5.20077959 161.67162401 5.20904899 160.05638453 5.21765137 158.44114685 C5.24378738 153.14697945 5.25917165 147.85280448 5.2734375 142.55859375 C5.27880084 140.73063719 5.28417836 138.90268067 5.28956985 137.0747242 C5.31118716 129.46636736 5.32992078 121.85801258 5.34119225 114.24963284 C5.3574133 103.37471366 5.39055947 92.50015272 5.44759309 81.62536854 C5.48639745 73.9631121 5.50583738 66.30095105 5.51111281 58.63859898 C5.5147522 54.07011014 5.52662208 49.50200412 5.55921555 44.93362236 C5.5894813 40.62999904 5.59554282 36.32698649 5.58383179 32.02327919 C5.58361258 30.45324287 5.59178918 28.88317665 5.60948563 27.31324005 C5.71787853 17.13420664 4.39085907 9.24410502 0 0 Z " fill="#1257A6" transform="translate(440,159)"/>
<path d="M0 0 C10.24056774 6.04014409 17.18285225 15.06101607 20.45703125 26.44921875 C20.70871353 29.75764275 20.70871353 29.75764275 20.71099854 33.41891479 C20.71567851 34.43494237 20.71567851 34.43494237 20.72045302 35.47149575 C20.72839405 37.72832026 20.7221247 39.98487297 20.71582031 42.24169922 C20.71853196 43.86505286 20.72209387 45.48840528 20.72644043 47.11175537 C20.73554748 51.51265408 20.73202673 55.91345887 20.72568226 60.31435919 C20.72061183 64.92573134 20.72531677 69.53709555 20.72845459 74.14846802 C20.73209192 81.89407796 20.727302 89.63964976 20.71777344 97.38525391 C20.70689702 106.32956533 20.7104095 115.27378551 20.72142625 124.21809471 C20.73051493 131.90575847 20.73177644 139.59339484 20.72654891 147.28106225 C20.72343692 151.86880559 20.72299851 156.45650611 20.72962189 161.04424667 C20.73541744 165.36003366 20.73135811 169.67570357 20.71983337 173.99147797 C20.71719826 175.57165203 20.71793217 177.15183601 20.7223587 178.73200607 C20.75723426 192.45126469 19.45526204 203.28950404 9.76953125 213.69921875 C1.33777148 221.71499037 -8.06683941 223.9201206 -19.36865234 223.95727539 C-27.68843085 223.73288302 -33.56811852 220.84366542 -40.54296875 216.44921875 C-42.30573062 215.36806724 -44.06877468 214.28737575 -45.83203125 213.20703125 C-49.92713131 210.67859125 -54.00181032 208.12013551 -58.06640625 205.54296875 C-64.48273872 201.47625183 -70.94355524 197.48514317 -77.41796875 193.51171875 C-79.57161881 192.18880897 -81.72526461 190.86589225 -83.87890625 189.54296875 C-84.96010742 188.87910156 -86.04130859 188.21523438 -87.15527344 187.53125 C-90.73698064 185.32998169 -94.31609155 183.12454251 -97.89453125 180.91796875 C-99.69481803 179.80829638 -101.49514114 178.69868297 -103.29547119 177.58908081 C-105.01222951 176.53067001 -106.72853109 175.47151848 -108.44482422 174.41235352 C-109.99387451 173.45800415 -109.99387451 173.45800415 -111.57421875 172.484375 C-112.94416992 171.63951538 -112.94416992 171.63951538 -114.34179688 170.77758789 C-116.47879338 169.44828744 -116.47879338 169.44828744 -118.54296875 168.44921875 C-119.01160194 153.53369151 -119.36352428 138.61873628 -119.57921219 123.69739914 C-119.68206264 116.76743313 -119.82203723 109.84205636 -120.05175781 102.91503906 C-120.27357831 96.22301095 -120.3887878 89.53671608 -120.44051361 82.84085846 C-120.47734011 80.29337975 -120.54927312 77.74614864 -120.65756989 75.20070648 C-121.45154013 55.75718182 -121.45154013 55.75718182 -116.5752449 50.21129608 C-111.77683665 46.34523779 -106.51671818 43.76101572 -100.84244823 41.42590237 C-98.00705224 40.22159294 -95.47810808 38.69033601 -92.91015625 36.99609375 C-92.16113037 36.53066162 -91.41210449 36.06522949 -90.64038086 35.58569336 C-89.54028687 34.89938843 -89.54028687 34.89938843 -88.41796875 34.19921875 C-86.66684777 33.1116875 -84.9155362 32.02446309 -83.1640625 30.9375 C-81.80837158 30.09566162 -81.80837158 30.09566162 -80.42529297 29.23681641 C-67.06672665 20.95192545 -53.68363688 12.70475875 -40.23046875 4.57421875 C-39.41892334 4.08042725 -38.60737793 3.58663574 -37.77124023 3.07788086 C-26.39518288 -3.76481459 -12.56713424 -5.5017408 0 0 Z " fill="#BADDFA" transform="translate(425.54296875,145.55078125)"/>
<path d="M0 0 C6.11430451 5.03888074 11.74688024 10.52765891 17.35473633 16.11450195 C18.95150371 17.7014173 20.55863012 19.27736518 22.16601562 20.85351562 C23.18294471 21.86392651 24.1992445 22.87497122 25.21484375 23.88671875 C26.13386475 24.79639404 27.05288574 25.70606934 27.99975586 26.64331055 C30 29 30 29 30 32 C28.2434082 33.41040039 28.2434082 33.41040039 25.80078125 34.84765625 C24.92099609 35.37037109 24.04121094 35.89308594 23.13476562 36.43164062 C21.73774414 37.23891602 21.73774414 37.23891602 20.3125 38.0625 C19.40048828 38.60455078 18.48847656 39.14660156 17.54882812 39.70507812 C13.43646004 42.12464597 9.47205339 44.30912134 5 46 C4.98598145 44.53361084 4.98598145 44.53361084 4.97167969 43.03759766 C4.9314165 39.36560646 4.86556334 35.69442157 4.79248047 32.02294922 C4.76447921 30.44232645 4.74316236 28.86156909 4.72900391 27.28076172 C4.63156489 15.17659489 4.63156489 15.17659489 0.84863281 3.76318359 C0 2 0 2 0 0 Z " fill="#114887" transform="translate(302,152)"/>
</svg>
